<svg width="30" height="30" viewBox="0 0 30 30" fill="none" xmlns="http://www.w3.org/2000/svg">
<mask id="mask0_311_87" style="mask-type:luminance" maskUnits="userSpaceOnUse" x="0" y="0" width="30" height="30">
<path d="M0 -1.90735e-06H30V30H0V-1.90735e-06Z" fill="white"/>
</mask>
<g mask="url(#mask0_311_87)">
<path d="M22.8948 11.0526C22.8948 19.7368 26.8422 18.9473 26.8422 22.8947C26.8422 22.8947 26.8422 24.4736 25.2632 24.4736H4.73691C3.15796 24.4736 3.15796 22.8947 3.15796 22.8947C3.15796 18.9473 7.10533 19.7368 7.10533 11.0526C7.10533 6.69311 10.6406 3.15784 15.0001 3.15784C19.3595 3.15784 22.8948 6.69311 22.8948 11.0526Z" fill="#FFC96E"/>
<path d="M17.3685 3.15795C17.3685 2.5298 17.119 1.92738 16.6748 1.48322C16.2306 1.03905 15.6282 0.789525 15.0001 0.789525C14.3719 0.789525 13.7695 1.03905 13.3253 1.48322C12.8812 1.92738 12.6317 2.5298 12.6317 3.15795C12.6317 3.78609 12.8812 4.38851 13.3253 4.83267C13.7695 5.27684 14.3719 5.52637 15.0001 5.52637C15.6282 5.52637 16.2306 5.27684 16.6748 4.83267C17.119 4.38851 17.3685 3.78609 17.3685 3.15795Z" fill="#FFC96E"/>
<path d="M15.0001 29.2104C15.8376 29.2104 16.6408 28.8777 17.233 28.2855C17.8252 27.6933 18.158 26.8901 18.158 26.0526H11.8422C11.8422 26.8901 12.1749 27.6933 12.7671 28.2855C13.3593 28.8777 14.1625 29.2104 15.0001 29.2104Z" fill="#FFC96E"/>
</g>
</svg>
